<svg xmlns="http://www.w3.org/2000/svg" viewBox="0 0 2052 656" role="img" aria-label="Tío José María — Apartamentos Rurales">
  <defs>
    <linearGradient id="tjm-green" x1="0" y1="0" x2="1" y2="0">
      <stop offset="0" stop-color="#6c9a24"/>
      <stop offset="1" stop-color="#8caf16"/>
    </linearGradient>
  </defs>
  <path d="M 648.340 39.859 C 639.495 46.910, 613.607 74.052, 601 89.490 C 597.975 93.194, 592.877 99.437, 589.672 103.362 C 586.467 107.288, 583.313 111.175, 582.664 112 C 576.026 120.434, 571.561 126.235, 566.500 133 C 563.200 137.411, 558.663 143.378, 556.417 146.260 C 550.322 154.081, 536.622 173.782, 532.500 180.652 C 531.400 182.486, 529.331 185.676, 527.902 187.743 C 518.911 200.744, 512.096 213.364, 507.582 225.369 C 505.224 231.642, 505 233.546, 505 247.299 C 505 263.093, 505.866 267.664, 511.291 280.500 C 517.678 295.613, 536.715 309.896, 554 312.543 C 556.475 312.922, 559.393 313.702, 560.485 314.277 C 561.576 314.852, 567.977 315.650, 574.708 316.050 C 585.221 316.676, 587.550 317.135, 591.223 319.304 C 602.200 325.784, 610.413 338.184, 616.190 357 C 617.614 361.638, 618.464 472.247, 617.204 489 C 616.687 495.875, 615.561 503.750, 614.701 506.500 C 613.841 509.250, 612.692 513.300, 612.148 515.500 C 610.026 524.075, 604.998 536.234, 600.983 542.500 C 599.926 544.150, 598.371 546.718, 597.527 548.207 C 584.284 571.580, 553.206 597.187, 533.976 600.571 C 532.064 600.908, 528.250 601.930, 525.500 602.842 C 519.293 604.900, 481.100 605.134, 474.500 603.154 C 472.300 602.493, 467.308 601.534, 463.406 601.021 C 441.555 598.149, 419.798 586.321, 406.692 570.188 C 395.314 556.181, 390.741 537.288, 394.424 519.500 C 395.221 515.650, 396.311 510.250, 396.847 507.500 C 398.681 498.093, 401.661 490.441, 409.699 474.500 C 413.482 466.999, 424.051 449.776, 425.962 448 C 426.258 447.725, 428.300 444.804, 430.500 441.509 C 435.510 434.005, 470.603 398.698, 478 393.720 C 481.025 391.684, 485.300 388.726, 487.500 387.146 C 511.460 369.938, 534.552 362, 560.653 362 C 568.738 362, 573.270 362.509, 588.826 365.167 C 593.247 365.922, 595.469 365.931, 596.203 365.197 C 599.734 361.666, 589.812 351.077, 577.176 344.890 L 568.500 340.643 553 340.670 C 530.406 340.710, 518.291 344.817, 493.500 360.842 C 446.641 391.131, 395.256 459.865, 379.747 513 C 376.204 525.140, 376.006 552.380, 379.388 562.450 C 383.175 573.727, 391.189 585.144, 399.076 590.500 C 401.505 592.150, 405.309 594.850, 407.528 596.500 C 415.230 602.227, 446.573 616, 451.904 616 C 452.941 616, 456.649 616.883, 460.145 617.962 C 472.721 621.843, 517.266 623.684, 537.500 621.159 C 564.126 617.836, 590.760 602.185, 608.393 579.500 C 614.712 571.372, 616.173 569.180, 622.405 558.484 C 627.835 549.164, 634.119 532.449, 636.497 521 C 637.239 517.425, 638.318 512.700, 638.894 510.500 C 639.931 506.541, 641.385 490.045, 642.986 464.088 C 643.465 456.313, 643.402 442.655, 642.836 431.588 C 642.299 421.090, 641.522 398.550, 641.108 381.500 C 640.695 364.450, 639.998 349.696, 639.557 348.713 C 637.930 345.078, 640.077 343.767, 673.269 328.131 C 685.588 322.328, 690.584 323.035, 692.474 330.849 C 693.875 336.642, 698.408 346.702, 701.225 350.271 C 711.349 363.098, 730.296 365.252, 749.683 355.779 C 771.960 344.895, 795.263 311.740, 800.133 284 C 800.664 280.975, 801.788 276.475, 802.632 274 C 803.774 270.648, 804.181 264.908, 804.230 251.500 C 804.291 234.574, 804.150 233.172, 801.878 228 C 797.537 218.117, 794.975 214.494, 790.187 211.465 C 785.684 208.616, 785.084 208.507, 774.872 208.686 C 768.246 208.801, 762.937 209.418, 760.770 210.323 C 758.860 211.121, 755.317 212.103, 752.898 212.505 C 750.479 212.907, 747.375 213.804, 746 214.498 C 744.625 215.192, 741.925 216.098, 740 216.511 C 732.929 218.030, 718.038 226.070, 712.082 231.585 C 700.605 242.210, 691.496 266.761, 688.552 295 C 686.902 310.830, 684.722 313.888, 676.127 312.429 C 659.260 309.567, 643.975 298.192, 638.849 284.689 C 635.821 276.712, 635.418 245.514, 638.220 236 C 639.110 232.975, 640.119 227.320, 640.462 223.434 C 640.804 219.548, 641.695 214.342, 642.440 211.865 C 643.186 209.388, 644.096 203.793, 644.463 199.431 C 644.831 195.069, 645.755 188.350, 646.517 184.500 C 647.278 180.650, 648.198 173.464, 648.559 168.531 C 648.920 163.598, 649.654 158.423, 650.189 157.031 C 650.724 155.639, 651.590 150.225, 652.114 145 C 652.638 139.775, 653.689 133.475, 654.448 131 C 655.208 128.525, 656.111 123.017, 656.455 118.760 C 656.800 114.503, 657.677 109.328, 658.404 107.260 C 659.131 105.192, 660.058 99.941, 660.463 95.592 C 660.869 91.242, 661.769 86.067, 662.464 84.092 C 663.159 82.116, 664.061 76.487, 664.468 71.582 C 664.875 66.676, 665.836 60.882, 666.604 58.706 C 668.867 52.292, 668.387 47.674, 664.926 42.546 C 659.628 34.695, 655.629 34.047, 648.340 39.859 M 1234.237 50.250 C 1233.253 51.471, 1231.635 55.317, 1226.982 67.500 C 1224.484 74.041, 1212.598 97.583, 1210.574 100 C 1209.883 100.825, 1207.702 104.200, 1205.729 107.500 C 1203.755 110.800, 1201.318 114.400, 1200.314 115.500 C 1199.310 116.600, 1196.052 120.650, 1193.073 124.500 C 1181.648 139.270, 1160.769 157.893, 1143.822 168.431 C 1134.835 174.020, 1117.323 182.789, 1111.878 184.426 C 1104.329 186.697, 1101 188.794, 1101.004 191.276 C 1101.008 193.619, 1112.205 216.498, 1114.525 218.904 C 1118.025 222.533, 1125.498 218.907, 1138.837 207.106 C 1142.323 204.023, 1147.660 199.580, 1150.698 197.233 C 1153.736 194.886, 1158.744 190.836, 1161.826 188.233 C 1164.909 185.630, 1168.122 182.973, 1168.966 182.328 C 1170.461 181.186, 1177.869 175.158, 1191.489 164 C 1195.182 160.975, 1202.507 154.787, 1207.766 150.250 C 1218.547 140.950, 1222.167 139.732, 1224.120 144.750 C 1225.372 147.967, 1224.348 236.986, 1222.984 243.500 C 1221.912 248.617, 1220.505 309.893, 1221.380 313.376 C 1221.948 315.641, 1222.566 316, 1225.897 316 C 1230.269 316, 1230.705 315.596, 1234.551 308 C 1236.083 304.975, 1237.879 301.825, 1238.543 301 C 1242.611 295.947, 1249.689 279.918, 1252.452 269.500 C 1253.181 266.750, 1254.278 263.233, 1254.889 261.685 C 1255.500 260.137, 1256 257.776, 1256 256.439 C 1256 255.102, 1256.858 251.419, 1257.907 248.254 C 1258.955 245.089, 1260.083 240.282, 1260.412 237.571 C 1260.742 234.859, 1261.654 230.359, 1262.441 227.571 C 1263.227 224.782, 1264.319 220.475, 1264.866 218 C 1265.414 215.525, 1266.826 210.350, 1268.004 206.500 C 1269.182 202.650, 1270.617 197.700, 1271.194 195.500 C 1271.771 193.300, 1272.888 189.475, 1273.678 187 C 1274.468 184.525, 1275.554 180.700, 1276.092 178.500 C 1276.630 176.300, 1277.682 173.150, 1278.430 171.500 C 1279.177 169.850, 1280.104 167.007, 1280.489 165.183 C 1280.874 163.358, 1281.818 160.658, 1282.588 159.183 C 1283.358 157.707, 1283.990 155.855, 1283.994 155.066 C 1284.001 153.506, 1285.763 149.535, 1292.868 135.073 C 1298.417 123.779, 1306.949 114, 1311.254 114 C 1315.791 114, 1316.699 116.895, 1317.367 133.500 C 1317.698 141.750, 1318.444 151.057, 1319.023 154.183 C 1321.050 165.119, 1320.766 210.510, 1318.620 218.500 C 1316.975 224.629, 1316.819 227.739, 1317.369 243.500 C 1317.715 253.400, 1318.432 263.331, 1318.963 265.568 C 1319.494 267.805, 1320.379 280.405, 1320.930 293.568 C 1321.481 306.731, 1322.355 318.923, 1322.872 320.663 C 1323.388 322.403, 1324.138 331.735, 1324.538 341.401 C 1325.360 361.250, 1325.521 361.652, 1332.209 360.583 C 1344.556 358.608, 1358.868 341.110, 1364.474 321.134 C 1365.189 318.585, 1366.253 315.150, 1366.838 313.500 C 1369.323 306.489, 1372 297.235, 1372 295.655 C 1372 294.717, 1372.900 291.389, 1374 288.260 C 1375.100 285.130, 1376.020 281.429, 1376.044 280.035 C 1376.068 278.641, 1376.764 275.700, 1377.590 273.500 C 1378.417 271.300, 1379.711 267.475, 1380.466 265 C 1384.673 251.208, 1388.184 244.750, 1395.824 236.750 C 1399.873 232.511, 1405.183 231.546, 1406.829 234.750 C 1407.323 235.713, 1408.028 246.621, 1408.394 258.991 C 1409.138 284.084, 1411.614 297.610, 1418.007 311.500 C 1419.020 313.700, 1420.499 317.104, 1421.295 319.063 C 1424.237 326.309, 1434.208 339.904, 1442.271 347.665 C 1456.242 361.110, 1467.742 366.622, 1485 368.144 C 1490.775 368.653, 1498.539 369.577, 1502.254 370.196 C 1514.965 372.316, 1526.680 366.118, 1539.574 350.450 C 1546.629 341.877, 1553.266 329.238, 1556.469 318.276 C 1557.320 315.362, 1561.665 312, 1564.579 312 C 1569.093 312, 1572.055 315.892, 1572.954 323.006 C 1574.630 336.255, 1581.777 351.331, 1589.217 357.309 C 1592.386 359.856, 1594.010 360.365, 1600.244 360.765 C 1616.891 361.834, 1626.384 356.328, 1628.979 344.098 C 1630.919 334.958, 1629.980 333.931, 1613.500 327.158 C 1610.750 326.028, 1607.507 324.831, 1606.294 324.498 C 1605.081 324.165, 1602.943 322.533, 1601.544 320.870 L 1599 317.847 1599 279.291 C 1599 230.765, 1599.334 231.678, 1581.500 231.540 C 1571.581 231.463, 1570.622 231.106, 1558.367 222.905 C 1539.314 210.156, 1530.291 209.945, 1518.267 221.968 C 1514.104 226.131, 1505 240.549, 1505 242.978 C 1505 243.695, 1504.167 246.130, 1503.150 248.390 C 1498.795 258.060, 1493.078 278.222, 1489.934 295 C 1489.367 298.025, 1488.193 303.425, 1487.326 307 C 1486.458 310.575, 1485.364 316.388, 1484.893 319.918 C 1483.393 331.163, 1479.657 339, 1475.795 339 C 1472.522 339, 1463.555 333.689, 1459.756 329.500 C 1453.644 322.761, 1444 305.478, 1444 301.264 C 1444 300.264, 1443.339 298.502, 1442.532 297.349 C 1441.725 296.197, 1440.783 293.284, 1440.440 290.877 C 1440.097 288.470, 1438.958 283.911, 1437.908 280.746 C 1436.859 277.581, 1436 273.265, 1436 271.155 C 1436 269.045, 1435.323 265.109, 1434.495 262.409 C 1433.627 259.577, 1432.561 249.673, 1431.976 239 C 1431.417 228.825, 1430.676 219.375, 1430.329 218 C 1429.981 216.625, 1429.428 196.759, 1429.099 173.853 C 1428.537 134.772, 1428.383 132.077, 1426.595 130.103 C 1423.930 127.161, 1421.514 127.464, 1415.427 131.505 C 1408.310 136.229, 1399.963 146.305, 1394.663 156.567 C 1390.360 164.902, 1385 177.172, 1385 178.689 C 1385 179.481, 1384.174 182.238, 1383.164 184.815 C 1380.165 192.469, 1377 202.735, 1377 204.812 C 1377 205.877, 1376.276 208.718, 1375.391 211.124 C 1374.506 213.531, 1373.206 218.200, 1372.502 221.500 C 1371.185 227.667, 1370.604 229.493, 1366.138 241.500 C 1358.455 262.153, 1348.830 273.156, 1344.889 265.792 C 1343.452 263.108, 1344.549 190.277, 1346.139 182.817 C 1348.041 173.890, 1347.737 127.501, 1345.721 119 C 1339.637 93.352, 1335.745 83.545, 1328.768 76.287 C 1325.098 72.469, 1319.061 71.165, 1313.523 72.993 C 1306.680 75.251, 1295.089 89.090, 1285.349 106.631 C 1283.782 109.453, 1281.263 113.897, 1279.750 116.507 C 1278.237 119.117, 1277 121.673, 1277 122.188 C 1277 123.098, 1272.850 132.703, 1270.913 136.276 C 1270.384 137.253, 1268.586 142.428, 1266.918 147.776 C 1261.158 166.245, 1260.705 167.507, 1259.200 169.250 C 1257.145 171.632, 1252.454 171.454, 1249.897 168.897 C 1247.918 166.918, 1247.836 166.143, 1248.500 155.647 C 1248.888 149.516, 1249.834 142.043, 1250.602 139.040 C 1251.683 134.818, 1252 124.652, 1252 94.213 L 1252 54.846 1249.077 51.923 C 1246.561 49.407, 1245.395 49, 1240.699 49 C 1237.540 49, 1234.821 49.526, 1234.237 50.250 M 600.991 127.871 C 596.581 130.642, 580.776 146.926, 575.273 154.370 C 573.748 156.433, 570.015 161.356, 566.978 165.310 C 556.743 178.638, 540.307 205.885, 535.678 217.199 C 533.685 222.070, 533.509 224.245, 533.505 244 C 533.499 269.968, 533.801 270.922, 545.821 282.942 C 557.469 294.590, 567.240 298.757, 585 299.651 C 595.146 300.161, 595.637 300.088, 599.557 297.491 C 613.892 287.994, 618.790 258.255, 617.509 188.500 C 616.866 153.469, 615.607 135.464, 613.367 129.250 C 611.455 123.948, 607.871 123.548, 600.991 127.871 M 1067.500 136.976 C 1063.068 138.857, 1046.929 156.792, 1036.500 171.425 C 1034.300 174.512, 1030.025 180.394, 1027 184.495 C 1015.971 199.448, 1015.687 200.585, 1018.590 218.123 C 1019.346 222.692, 1017.316 224.777, 1007.376 229.644 C 999.315 233.590, 990.830 240.696, 986.482 247.142 C 984.865 249.539, 982.132 253.300, 980.407 255.500 C 977.248 259.532, 976.847 260.226, 971.624 270.721 C 958.136 297.828, 953.736 322.112, 959.526 337.500 C 962.827 346.274, 965.638 349.995, 971.711 353.632 L 976.500 356.500 997 356.494 C 1019.736 356.488, 1019.538 356.530, 1048 345.591 C 1067.771 337.993, 1094.076 323.711, 1100.329 317.180 C 1103.775 313.582, 1103.084 311.983, 1096.144 307.500 C 1091.630 304.584, 1091.179 304.504, 1080 304.628 C 1070.181 304.736, 1067.514 305.137, 1061.755 307.367 C 1053.577 310.534, 1040.301 317.170, 1033.500 321.490 C 1025.724 326.429, 1015.196 331.426, 1007.256 333.947 C 998.775 336.640, 995.981 336.020, 990.995 330.342 C 986.357 325.059, 986.840 321.278, 993.397 311.524 C 1001.693 299.185, 1002.939 298.513, 1020.500 296.900 C 1041.379 294.983, 1055.185 288.650, 1061.018 278.314 C 1063.870 273.261, 1064 272.505, 1064 260.982 C 1064 246.232, 1062.241 241.845, 1053.312 234.327 C 1031.764 216.181, 1031.806 216.421, 1047.815 203.339 C 1064.628 189.601, 1077.128 173.216, 1081.404 159.312 C 1085.827 144.933, 1078.078 132.486, 1067.500 136.976 M 294.219 143.071 C 288.764 147.082, 276.524 163.013, 261.270 185.955 C 247.627 206.474, 246.640 209.446, 251.082 216.632 C 253.619 220.738, 255.261 220.833, 263.922 217.370 C 289.141 207.286, 316.500 175.395, 316.500 156.081 C 316.500 142.445, 304.554 135.470, 294.219 143.071 M 1845.112 147.540 C 1841.747 151.137, 1838.214 155.299, 1837.260 156.790 C 1836.306 158.280, 1833.270 162.286, 1830.513 165.691 C 1814.260 185.761, 1805.080 201.584, 1805.031 209.615 C 1804.938 224.797, 1822.977 223.425, 1836.609 207.213 C 1847.614 194.126, 1848.980 192.160, 1852.993 183.636 C 1855.198 178.950, 1857.452 174.839, 1858.001 174.499 C 1858.551 174.160, 1859 172.832, 1859 171.548 C 1859 170.264, 1859.695 168.947, 1860.545 168.621 C 1861.395 168.295, 1862.738 166.478, 1863.530 164.582 C 1864.322 162.687, 1865.433 160.850, 1866 160.500 C 1867.046 159.854, 1870 153.485, 1870 151.878 C 1870 151.395, 1869.325 151, 1868.500 151 C 1867.648 151, 1867 150.103, 1867 148.923 C 1867 144.869, 1861.722 141, 1856.192 141 C 1851.371 141, 1851.054 141.187, 1845.112 147.540 M 209.281 158.490 C 205.311 159.210, 196.761 160.101, 190.281 160.471 C 183.801 160.840, 176.217 161.775, 173.427 162.548 C 170.636 163.321, 165.011 164.257, 160.927 164.627 C 156.842 164.998, 151.822 165.885, 149.772 166.598 C 147.722 167.312, 143.222 168.173, 139.772 168.512 C 136.322 168.852, 131.700 169.758, 129.500 170.526 C 127.300 171.294, 122.712 172.361, 119.304 172.897 C 115.897 173.433, 112.297 174.298, 111.304 174.821 C 110.312 175.343, 107.025 176.079, 104 176.456 C 100.975 176.834, 95.911 178.010, 92.746 179.071 C 89.581 180.132, 85.854 181, 84.464 181 C 83.073 181, 80.392 181.645, 78.506 182.433 C 76.620 183.221, 72.922 184.180, 70.288 184.564 C 67.655 184.948, 63.925 185.867, 62 186.607 C 60.075 187.346, 56.025 188.387, 53 188.919 C 45.442 190.247, 37.050 192.714, 35.384 194.096 C 32.531 196.464, 34.151 204.969, 38.365 209.750 C 40.225 211.860, 41.135 212, 52.993 212 C 60.971 212, 67.457 211.474, 70.568 210.574 C 73.281 209.789, 79.100 208.835, 83.500 208.454 C 87.900 208.072, 93.300 207.170, 95.500 206.448 C 97.700 205.726, 103.016 204.655, 107.313 204.069 C 111.611 203.482, 115.978 202.547, 117.017 201.991 C 118.057 201.434, 121.541 200.704, 124.760 200.367 C 133.448 199.459, 134.381 200.729, 133.624 212.427 C 133.301 217.417, 132.761 238.825, 132.423 260 C 132.085 281.175, 131.419 300.326, 130.943 302.559 C 130.467 304.791, 130.027 315.366, 129.965 326.059 C 129.808 353.217, 132.389 362.109, 141.710 366.533 C 149.115 370.046, 163.962 366.678, 168.934 360.356 C 172.508 355.813, 172.420 353.855, 168.236 344.886 C 160.965 329.298, 160.855 328.120, 161.246 270 C 161.583 219.776, 161.647 218.333, 163.836 211.776 C 166.584 203.539, 174.720 194.614, 180.787 193.180 C 182.829 192.697, 186.525 191.776, 189 191.133 C 191.475 190.490, 196.604 189.277, 200.399 188.438 C 204.193 187.598, 208.018 186.526, 208.899 186.054 C 209.779 185.583, 212.750 184.869, 215.500 184.468 C 218.250 184.066, 222.075 183.143, 224 182.416 C 225.925 181.689, 229.975 180.657, 233 180.123 C 236.025 179.589, 240.637 178.234, 243.250 177.112 C 247.553 175.263, 247.997 174.762, 247.969 171.786 C 247.931 167.766, 244.173 161.413, 240.340 158.886 C 236.875 156.601, 220.823 156.396, 209.281 158.490 M 395.351 208.938 C 392.519 209.388, 389.714 210.059, 389.118 210.427 C 388.521 210.796, 385.213 211.730, 381.767 212.503 C 372.839 214.506, 354.107 220.996, 351.500 222.990 C 350.950 223.411, 349.421 224.087, 348.103 224.492 C 342.416 226.239, 331.509 237.725, 329.136 244.466 C 328.936 245.035, 327.990 247.300, 327.035 249.500 C 324.041 256.393, 321.160 266.281, 320.479 272 C 320.119 275.025, 319.168 279.824, 318.366 282.665 C 316.252 290.150, 316.896 318.951, 319.390 328.500 C 323.168 342.961, 329.971 351.843, 341.081 356.818 C 359.790 365.196, 382.006 359.902, 399.073 343 C 408.508 333.656, 410.610 329.867, 418.486 308 C 419.180 306.075, 420.704 302.016, 421.874 298.981 C 423.043 295.945, 423.993 293.020, 423.986 292.481 C 423.978 291.941, 424.850 288.575, 425.925 285 C 431.039 267.992, 432.210 260.410, 432.228 244.219 C 432.246 227.601, 430.875 221.904, 425.295 215.411 C 419.860 209.087, 409.072 206.755, 395.351 208.938 M 889.500 215.211 C 881.999 217.622, 870.063 223.294, 863.500 227.567 C 845.464 239.309, 836.222 261.728, 843.234 276.723 C 846.439 283.577, 859.125 299.203, 866.335 305.177 C 869.726 307.987, 872.725 310.569, 873 310.916 C 873.275 311.263, 880.250 317.548, 888.500 324.883 C 906.114 340.543, 907 341.486, 907 344.576 C 907 348.825, 905.176 349, 860.966 349 L 818.800 349 815.279 352.521 C 812.322 355.478, 811.855 356.526, 812.364 359.068 C 813.230 363.399, 818.507 370.646, 822.924 373.568 L 826.708 376.072 876.104 375.786 L 925.500 375.500 929.962 373 C 937.018 369.047, 939.976 363.724, 940.683 353.706 C 941.706 339.200, 942.866 340.689, 893.819 293.500 C 879.294 279.525, 873 272.011, 873 268.644 C 873 262.725, 886.036 245.101, 893.126 241.435 C 900.419 237.664, 907.511 241.899, 915.840 255 C 923.780 267.488, 940.598 280.994, 944.872 278.315 C 947.228 276.839, 947.470 269.190, 945.513 258 C 943.023 243.755, 938 233.236, 929.500 224.469 C 920.705 215.397, 915.289 212.964, 904.283 213.141 C 898.706 213.231, 893.310 213.986, 889.500 215.211 M 1915.266 214.423 C 1908.445 217.517, 1897.003 232.823, 1891.287 246.500 C 1883.658 264.754, 1882.740 267.263, 1879.210 279.500 C 1874.141 297.076, 1872.994 301.706, 1872.997 304.568 C 1872.999 306.256, 1872.237 310.081, 1871.305 313.068 C 1869.952 317.404, 1869.599 322.652, 1869.555 339.070 C 1869.500 359.589, 1869.506 359.650, 1872.100 363.570 C 1874.011 366.460, 1875.996 367.965, 1879.600 369.255 C 1894.268 374.508, 1910.212 367.531, 1922.786 350.355 C 1928.349 342.757, 1936 331.255, 1936 330.491 C 1936 329.027, 1947.358 316.021, 1949.127 315.460 C 1953.291 314.138, 1955.356 317.135, 1958.850 329.574 C 1965.677 353.877, 1971.872 360.116, 1989.432 360.373 C 1999.227 360.517, 2001.847 359.303, 2010.137 350.778 C 2015.601 345.159, 2016 344.429, 2016 340.049 C 2016 333.814, 2013.875 331.928, 2002.585 328.137 C 1985.795 322.500, 1985.709 322.331, 1986.520 296.500 C 1986.942 283.083, 1986.778 274.868, 1986.023 271.541 C 1985.404 268.814, 1984.493 263.388, 1983.998 259.484 C 1983.120 252.556, 1977.405 237.603, 1974.163 233.750 C 1972.943 232.301, 1970.992 232, 1962.813 232 C 1950.701 232, 1947.386 230.757, 1941.230 223.910 C 1932.680 214.402, 1923.062 210.887, 1915.266 214.423 M 1648.500 224.410 C 1645.552 226.769, 1645.500 226.972, 1645.500 236.155 C 1645.500 245.638, 1647.230 255.230, 1651.335 268.500 C 1653.838 276.592, 1654.220 305.337, 1652.115 327.146 C 1650.474 344.149, 1651.829 353.319, 1656.653 357.866 C 1659.933 360.957, 1660.628 361.194, 1665.159 360.759 C 1672.521 360.051, 1675.381 356.720, 1682.553 340.500 C 1685.158 334.609, 1696.073 303.198, 1700.449 289 C 1706.540 269.236, 1713.162 257.731, 1722.324 250.993 C 1728.147 246.711, 1732.208 246.955, 1739.836 252.049 C 1745.529 255.851, 1746.281 256.080, 1752.165 255.799 C 1758.037 255.519, 1758.574 255.286, 1760.715 252.102 C 1765.434 245.085, 1762.509 233.303, 1754.806 228.298 C 1750.849 225.727, 1749.585 225.473, 1739.210 225.163 C 1722.097 224.652, 1715.487 227.277, 1704 239.148 C 1688.061 255.618, 1677.657 257.027, 1675.537 243 C 1674.462 235.890, 1670.065 227.916, 1665.500 224.799 C 1660.099 221.110, 1652.833 220.944, 1648.500 224.410 M 253.662 232.738 C 253.327 233.280, 252.781 238.849, 252.449 245.112 C 252.117 251.376, 251.241 260.100, 250.503 264.500 C 249.765 268.900, 248.873 280.600, 248.521 290.500 C 248.170 300.400, 247.202 312.238, 246.370 316.807 C 244.135 329.085, 244.790 353.063, 247.509 358.500 L 249.510 362.500 257.729 362.790 C 267.832 363.147, 270.304 361.822, 273.649 354.259 C 275.955 349.046, 276 348.335, 276 317.475 C 276 289.046, 276.186 285.452, 277.930 280.254 C 280.155 273.618, 281.515 258.378, 280.524 251.177 C 279.776 245.739, 275.158 237.882, 270.841 234.703 C 267.868 232.514, 254.730 231.011, 253.662 232.738 M 1808.540 234.551 C 1807.117 236.087, 1805.706 238.504, 1805.405 239.922 C 1805.104 241.340, 1804.171 244.744, 1803.331 247.487 C 1802.491 250.230, 1801.407 256.755, 1800.923 261.987 C 1800.438 267.219, 1799.584 273.525, 1799.026 276 C 1798.468 278.475, 1798.041 284.100, 1798.079 288.500 C 1798.116 292.900, 1797.774 308.650, 1797.318 323.500 C 1796.862 338.350, 1796.716 351.453, 1796.994 352.617 C 1797.272 353.782, 1799.047 356.032, 1800.938 357.617 C 1804.210 360.361, 1804.919 360.516, 1815.625 360.834 L 1826.873 361.169 1828.937 357.124 C 1830.944 353.189, 1831 351.648, 1831 300.162 C 1831 241.891, 1831.229 244.188, 1824.650 236.616 C 1819.941 231.196, 1812.530 230.246, 1808.540 234.551 M 752 246.896 C 742.684 249.442, 735.722 253.578, 729.037 260.540 C 721.421 268.472, 721.009 270.217, 721.022 294.500 C 721.032 313.397, 721.157 314.720, 723.287 318.480 C 732.627 334.970, 754.217 325.959, 766.364 300.500 C 773.234 286.101, 775.473 278.855, 777.477 264.533 C 779.144 252.623, 778.506 247.876, 774.986 245.992 C 772.074 244.434, 759.151 244.943, 752 246.896 M 1530.959 247.337 C 1528.857 249.286, 1527.717 252.817, 1524.096 268.587 C 1521.707 278.989, 1519.123 290.164, 1518.354 293.419 C 1516.894 299.595, 1514.642 317.046, 1514.552 322.878 C 1514.428 330.957, 1521.953 328.645, 1530.432 318 C 1536.273 310.667, 1545 297.790, 1545 296.505 C 1545 296.039, 1545.584 294.947, 1546.297 294.079 C 1549.683 289.958, 1555 271.640, 1555 264.097 C 1555 258.422, 1552.455 251.084, 1549.370 247.864 C 1545.590 243.918, 1534.974 243.615, 1530.959 247.337 M 1918.287 247.091 C 1912.868 250.563, 1908.355 262.373, 1903.508 285.768 C 1900.441 300.571, 1899.825 325.612, 1902.502 326.639 C 1905.211 327.679, 1908.764 326.071, 1912.523 322.104 C 1923.153 310.886, 1938.627 284.377, 1941.710 272.102 C 1945.996 255.039, 1930.955 238.978, 1918.287 247.091 M 386.965 247.517 C 374.052 249.698, 362.802 256.911, 353.540 268.948 C 348.077 276.048, 345.614 286.884, 346.160 301.413 C 346.559 312.043, 348.831 317.701, 355.492 324.653 C 360.857 330.252, 367.597 330.861, 373.170 326.250 C 384.734 316.683, 397.326 299.761, 401.508 288.167 C 403.660 282.199, 403.952 279.634, 404.083 265.521 C 404.276 244.614, 404.259 244.595, 386.965 247.517 M 1019.925 251.666 C 1014.873 253.746, 1013 257.456, 1013 265.385 C 1013 271.487, 1013.173 272.005, 1015.392 272.562 C 1018.380 273.312, 1023.149 270.932, 1024.864 267.835 C 1025.575 266.551, 1027.883 264.150, 1029.994 262.500 C 1033.997 259.371, 1036.440 255.521, 1035.444 253.910 C 1034.581 252.514, 1028.072 249.986, 1025.628 250.097 C 1024.458 250.151, 1021.891 250.857, 1019.925 251.666 M 1299.495 410.717 C 1297.848 411.588, 1295.825 412.619, 1295 413.007 C 1293.747 413.597, 1293.404 417.969, 1292.913 439.607 C 1292.590 453.848, 1291.998 466.850, 1291.596 468.500 C 1289.412 477.477, 1294.902 494, 1300.070 494 C 1301.078 494, 1304.512 494.683, 1307.701 495.517 C 1317.494 498.080, 1328 494.923, 1328 489.419 C 1328 486.661, 1326.547 486.105, 1317.287 485.323 C 1306.906 484.445, 1305.292 482.307, 1304.368 468.209 L 1303.704 458.063 1306.524 456.991 C 1309.815 455.740, 1312 456.315, 1312 458.433 C 1312 460.451, 1315.678 462.298, 1318.358 461.625 C 1322.514 460.582, 1326.813 454.912, 1327.171 450 L 1327.500 445.500 1318.722 445.500 C 1308.114 445.500, 1308.036 445.418, 1308.015 434.307 C 1308.003 427.755, 1308.422 425.400, 1310.106 422.546 C 1312.730 418.097, 1312.016 414.388, 1308.222 412.773 C 1306.725 412.135, 1304.823 411.055, 1303.995 410.373 C 1302.784 409.376, 1301.902 409.443, 1299.495 410.717 M 1781.260 415.146 L 1777.019 418.119 1777.228 425.042 C 1777.359 429.410, 1776.987 432.413, 1776.218 433.182 C 1774.658 434.742, 1774.656 438.477, 1776.214 440.971 C 1777.234 442.605, 1777.074 443.292, 1775.214 445.272 C 1772.493 448.168, 1772.373 451.128, 1774.912 452.713 C 1777.376 454.251, 1777.012 465.225, 1774.402 468.109 C 1772.875 469.795, 1772.884 470.390, 1774.517 476.423 C 1775.987 481.857, 1776.070 483.416, 1775.024 485.942 C 1773.185 490.382, 1774.162 491.622, 1780.048 492.319 C 1782.923 492.660, 1786.055 493.645, 1787.010 494.509 C 1789.167 496.461, 1795.448 496.042, 1802.500 493.476 C 1806.664 491.961, 1807.877 490.918, 1809.756 487.242 C 1812.789 481.305, 1812.133 480.676, 1803.626 481.370 C 1799.096 481.739, 1795.225 481.505, 1793 480.726 L 1789.500 479.500 1788.757 468.500 C 1788.348 462.450, 1788.285 447.931, 1788.618 436.236 C 1789.357 410.221, 1789.146 409.616, 1781.260 415.146 M 948.352 413.993 C 944.732 415.454, 944.521 416.742, 943.839 441.500 C 943.476 454.700, 942.862 467.721, 942.474 470.435 C 941.596 476.583, 943.550 485.506, 946.586 489.213 C 947.809 490.705, 948.977 492.431, 949.182 493.047 C 949.388 493.664, 950.894 494.318, 952.528 494.501 C 954.163 494.685, 957.525 495.354, 960 495.990 C 969.439 498.414, 980.616 494.332, 979.818 488.753 C 979.468 486.303, 975.503 485.166, 966.937 485.058 C 959.014 484.958, 957.195 481.983, 956.812 468.500 L 956.500 457.500 959.300 457.179 C 961.351 456.943, 962.641 457.545, 964.123 459.429 C 968.724 465.279, 978.508 459.150, 979.173 450 L 979.500 445.500 970.693 445.467 C 960.074 445.428, 960.036 445.389, 960.015 434.274 C 960.003 427.795, 960.424 425.353, 961.996 422.774 C 964.475 418.709, 964.516 416.777, 962.171 414.655 C 960.180 412.853, 952.133 412.468, 948.352 413.993 M 1532.222 419 C 1530.634 420.300, 1528.969 420.710, 1526.722 420.352 C 1520.503 419.361, 1509.861 426.511, 1508.024 432.915 C 1507.080 436.207, 1509.510 481.837, 1510.984 488.500 C 1511.592 491.250, 1512.303 494.512, 1512.564 495.750 C 1513.137 498.470, 1514.697 498.573, 1517.912 496.101 C 1520.315 494.254, 1520.323 494.186, 1520.030 477.374 C 1519.374 439.744, 1520.028 436.857, 1529.945 433.613 C 1535.457 431.810, 1550.427 432.385, 1553 434.499 C 1553.825 435.177, 1555.737 436.025, 1557.250 436.385 C 1558.763 436.744, 1560 437.660, 1560 438.419 C 1560 439.834, 1547.908 451.212, 1545.717 451.859 C 1542.541 452.796, 1533.583 457.349, 1529.522 460.090 C 1525.960 462.494, 1525 463.737, 1525 465.946 C 1525 471.386, 1526.228 474.752, 1529.596 478.537 C 1531.468 480.642, 1533 482.701, 1533 483.114 C 1533 483.527, 1534.004 484.184, 1535.231 484.573 C 1537.757 485.375, 1541.870 488.207, 1546.379 492.250 C 1548.079 493.775, 1550.617 495, 1552.075 495 C 1553.537 495, 1556.054 496.220, 1557.749 497.750 C 1562.243 501.807, 1569.541 507, 1570.749 507 C 1572.166 507, 1575.619 501.012, 1576.491 497.042 C 1577.035 494.565, 1576.741 493.344, 1575.197 491.668 C 1574.099 490.476, 1573.037 488.607, 1572.839 487.515 C 1572.582 486.099, 1571.409 485.357, 1568.743 484.923 C 1566.688 484.589, 1564.161 483.551, 1563.127 482.615 C 1562.094 481.680, 1559.567 480.642, 1557.513 480.308 C 1554.616 479.838, 1553.504 479.049, 1552.554 476.791 C 1551.881 475.189, 1549.934 473.030, 1548.229 471.993 C 1541.269 467.760, 1543.020 462.557, 1553.127 457.435 C 1556.069 455.945, 1558.937 453.492, 1560.376 451.235 C 1561.687 449.181, 1563.938 446.490, 1565.379 445.257 C 1568.434 442.641, 1569.134 435.186, 1566.526 433.022 C 1565.716 432.349, 1564.786 430.374, 1564.459 428.633 C 1563.497 423.504, 1554.756 419.179, 1552.019 422.477 C 1550.958 423.755, 1550.230 423.566, 1546.604 421.071 C 1543.495 418.933, 1541.979 418.432, 1540.729 419.132 C 1539.573 419.779, 1538.331 419.614, 1536.772 418.605 C 1534.730 417.283, 1534.270 417.323, 1532.222 419 M 719.250 420.230 C 718.013 420.822, 717 422.108, 717 423.088 C 717 425.272, 715.712 428.258, 712.507 433.500 C 710.183 437.302, 708.212 441.143, 704.552 449 C 701.478 455.598, 698.842 460.301, 697.422 461.721 C 696.640 462.503, 696 464.220, 696 465.537 C 696 466.853, 694.693 469.419, 693.095 471.239 C 691.201 473.396, 689.943 476.195, 689.480 479.286 C 689.089 481.892, 688.371 484.271, 687.885 484.571 C 687.398 484.872, 687 486.891, 687 489.059 C 687 496.634, 694.077 499.268, 696.324 492.529 C 696.833 491.001, 697.981 488.960, 698.875 487.994 C 702.406 484.178, 704 481.494, 704 479.368 C 704 474.512, 706.683 473.690, 726.058 472.604 C 736.798 472.002, 738.948 472.948, 740.600 479 C 742.224 484.948, 745.047 491.632, 747.882 496.237 C 749.787 499.332, 750.496 499.805, 752.013 498.993 C 757.806 495.893, 758.004 491.780, 752.821 482.180 C 751.241 479.255, 749.450 474.530, 748.841 471.680 C 748.231 468.831, 746.250 463.575, 744.438 460 C 740.871 452.964, 738.414 446.094, 736.928 439 C 736.410 436.525, 735.314 434, 734.493 433.390 C 733.605 432.729, 733 430.666, 733 428.295 C 733 423.027, 731.093 421.350, 723 419.498 C 722.175 419.309, 720.487 419.639, 719.250 420.230 M 1221.260 436.227 C 1219.487 438.433, 1219.247 444.891, 1220.141 466.316 C 1220.873 483.847, 1221.329 487.832, 1223.030 491.566 C 1225.574 497.150, 1226.374 497.110, 1232.503 491.098 C 1241.553 482.219, 1244.503 478.565, 1246.971 473.178 C 1248.668 469.474, 1250.335 467.428, 1252.455 466.448 C 1254.130 465.674, 1256.266 464.485, 1257.202 463.805 C 1259.669 462.016, 1260.246 463.144, 1261.006 471.246 C 1261.952 481.343, 1265.128 488, 1268.997 488 C 1270.609 488, 1272.296 488.706, 1272.789 489.587 C 1273.632 491.093, 1284.209 495.986, 1286.643 495.995 C 1287.767 496, 1289 493.816, 1289 491.819 C 1289 491.260, 1287.069 488.934, 1284.709 486.651 C 1279.091 481.216, 1277.408 478.406, 1276.521 472.978 C 1276.118 470.515, 1274.936 467.097, 1273.894 465.382 C 1272.713 463.438, 1272 460.408, 1272 457.335 C 1272 452.936, 1271.596 452.024, 1268.250 448.859 C 1260.539 441.565, 1253 441.899, 1253 449.533 C 1253 454.687, 1252.121 455.997, 1248.643 456.027 C 1246.081 456.049, 1245.056 456.774, 1243.096 459.953 C 1238.747 467.006, 1231.981 470.197, 1233.405 464.524 C 1233.931 462.427, 1232.063 454.116, 1230.028 449.500 C 1229.543 448.400, 1228.939 445.323, 1228.686 442.663 C 1228.433 440.003, 1227.838 437.466, 1227.363 437.025 C 1225.621 435.409, 1222.269 434.971, 1221.260 436.227 M 1428 439.583 C 1426.625 440.346, 1424.801 440.977, 1423.946 440.985 C 1421.655 441.007, 1413 446.746, 1413 448.243 C 1413 448.951, 1412.100 451.209, 1411 453.261 C 1407.977 458.901, 1408.504 463.484, 1412.792 468.860 C 1414.607 471.135, 1414.786 471.162, 1417.788 469.610 C 1422.094 467.383, 1423.489 467.583, 1424.875 470.626 C 1425.964 473.014, 1426.471 473.207, 1430.473 472.756 C 1434.367 472.317, 1435.199 472.600, 1437.687 475.204 C 1440.427 478.072, 1440.450 478.186, 1438.559 479.574 C 1437.491 480.358, 1435.454 481, 1434.031 481 C 1432.609 481, 1430.557 481.621, 1429.473 482.381 C 1427.069 484.063, 1418.575 483.975, 1416.850 482.250 C 1413.774 479.173, 1408.508 481.731, 1407.441 486.820 C 1407.132 488.294, 1406.456 490.281, 1405.940 491.236 C 1403.945 494.922, 1404.778 495.994, 1409.750 496.138 C 1432.298 496.792, 1434.509 496.557, 1438.964 493.028 C 1445.023 488.230, 1448.634 480.126, 1446.528 476.053 C 1445.687 474.429, 1445 472.408, 1445 471.562 C 1445 469.928, 1437.983 465, 1435.655 465 C 1434.893 465, 1433.126 464.100, 1431.727 463 C 1430.294 461.873, 1427.670 461, 1425.715 461 C 1420.950 461, 1419.236 458.815, 1421.405 455.505 C 1422.901 453.221, 1423.673 453, 1430.138 453 C 1436.946 453, 1437.357 453.138, 1440.389 456.449 C 1444.654 461.105, 1446.447 460.005, 1445.787 453.136 C 1444.755 442.391, 1435.563 435.387, 1428 439.583 M 1903.548 438.923 C 1903.234 439.431, 1901.520 440.162, 1899.739 440.548 C 1888.484 442.989, 1881.599 454.443, 1884.618 465.703 C 1885.590 469.329, 1889.748 471.538, 1891.913 469.578 C 1894.304 467.415, 1895.723 467.589, 1899.144 470.467 C 1901.274 472.260, 1902.822 472.786, 1904.804 472.389 C 1908.335 471.683, 1913.244 475.313, 1912.804 478.305 C 1912.238 482.160, 1897.107 485.228, 1891.583 482.607 C 1889.721 481.723, 1887.557 481, 1886.773 481 C 1884.754 481, 1881.001 485.262, 1880.994 487.564 C 1880.990 488.629, 1880.346 490.730, 1879.562 492.233 C 1878.778 493.736, 1878.456 495.164, 1878.848 495.406 C 1879.454 495.780, 1887.574 496.138, 1894.500 496.095 C 1895.600 496.088, 1898.888 496.068, 1901.806 496.051 C 1906.036 496.026, 1907.997 495.410, 1911.480 493.014 C 1918.915 487.899, 1920.256 485.493, 1919.790 478.110 C 1919.280 470.013, 1918.143 468.901, 1904.500 463.156 C 1901.750 461.998, 1898.150 460.926, 1896.500 460.775 C 1892.905 460.445, 1891.940 457.241, 1894.706 454.819 C 1896.666 453.103, 1909.799 451.486, 1911.553 452.745 C 1912.132 453.160, 1913.870 455.183, 1915.414 457.240 C 1916.959 459.297, 1918.622 460.733, 1919.111 460.431 C 1920.804 459.385, 1920.112 449.415, 1918.170 446.885 C 1917.164 445.573, 1916.053 443.712, 1915.702 442.750 C 1915.350 441.788, 1914.235 441, 1913.223 441 C 1912.210 441, 1910.509 440.339, 1909.441 439.532 C 1907.226 437.856, 1904.388 437.563, 1903.548 438.923 M 1081.177 441.967 C 1079.274 444.050, 1077.850 444.773, 1076.397 444.394 C 1074.917 444.007, 1073.846 444.586, 1072.640 446.426 C 1070.600 449.541, 1067.027 449.793, 1064.500 447 C 1062.267 444.532, 1056.794 444.349, 1054.478 446.665 C 1052.564 448.579, 1053.096 461.106, 1055.598 473 C 1056.350 476.575, 1056.973 482.333, 1056.983 485.795 C 1056.997 491.125, 1057.375 492.466, 1059.443 494.534 C 1063.545 498.636, 1068.947 494.834, 1068.985 487.817 C 1068.995 486.081, 1069.661 484.925, 1070.875 484.540 C 1073.107 483.831, 1076.081 476.552, 1076.773 470.101 C 1077.057 467.449, 1078.057 464.742, 1079.133 463.711 C 1080.160 462.727, 1081 461.275, 1081 460.484 C 1081 458.719, 1085.541 455.598, 1086.893 456.434 C 1088.819 457.624, 1090.966 463.288, 1090.379 465.628 C 1090.050 466.938, 1090.553 469.904, 1091.503 472.250 C 1093.090 476.173, 1094.794 485.277, 1095.293 492.500 C 1095.533 495.974, 1099.626 497.420, 1101.209 494.590 C 1101.699 493.716, 1102.865 492.993, 1103.800 492.985 C 1106.990 492.956, 1108.392 491.142, 1108.946 486.327 C 1109.434 482.090, 1109.819 481.455, 1112.173 481.008 C 1114.668 480.534, 1121 473.925, 1121 471.796 C 1121 470.143, 1126.195 464, 1127.593 464 C 1129.791 464, 1131.678 468.998, 1132.355 476.612 C 1133.191 485.999, 1136.882 494.503, 1140.517 495.415 C 1144.015 496.293, 1147.433 495.233, 1146.153 493.666 C 1144.990 492.243, 1143.079 461.380, 1143.738 454.678 C 1144.216 449.819, 1141.632 445, 1138.548 445 C 1137.941 445, 1136.674 444.100, 1135.732 443 C 1133.307 440.168, 1131.417 440.499, 1127.328 444.470 C 1125.362 446.379, 1121.672 448.912, 1119.127 450.100 C 1116.582 451.288, 1111.926 454.936, 1108.780 458.208 C 1105.634 461.479, 1102.637 463.894, 1102.119 463.574 C 1101.602 463.254, 1100.863 459.205, 1100.478 454.576 C 1099.675 444.941, 1097.806 442.273, 1090.384 440.168 C 1084.653 438.542, 1084.230 438.625, 1081.177 441.967 M 770.835 440.673 C 769.919 440.915, 768.890 441.845, 768.546 442.740 C 768.203 443.634, 768.012 463.971, 768.121 487.933 C 768.230 511.895, 768.218 534.889, 768.094 539.031 C 767.857 546.925, 770.017 552, 773.613 552 C 776.786 552, 781 547.729, 781 544.512 C 781 542.800, 781.492 540.908, 782.093 540.307 C 782.884 539.516, 782.743 538.538, 781.585 536.770 C 780.087 534.483, 780.113 534.208, 781.992 532.508 C 784.627 530.122, 784.526 528.859, 781.431 525.520 C 779.251 523.168, 779.016 522.350, 779.877 520.124 C 780.435 518.681, 780.751 513.534, 780.579 508.688 C 780.211 498.275, 781.213 496.442, 786.711 497.474 C 789.465 497.990, 791.011 497.531, 794.808 495.069 C 803.123 489.676, 809 483.985, 809 481.328 C 809 479.929, 810.229 477.738, 811.880 476.194 C 817.156 471.260, 819.126 464.938, 817.956 456.693 C 816.451 446.078, 813.221 442.606, 803.767 441.440 C 798.937 440.844, 797.969 441.342, 796.222 445.315 C 795.273 447.471, 794.521 447.983, 793.004 447.501 C 791.866 447.140, 789.761 447.619, 788.052 448.628 C 785.205 450.310, 784.996 450.306, 783.041 448.537 C 781.918 447.521, 781 445.651, 781 444.380 C 781 440.823, 776.486 439.176, 770.835 440.673 M 847 442.052 C 844.734 443.335, 842.552 443.829, 840.810 443.451 C 838.561 442.963, 837.870 443.351, 836.596 445.815 C 835.758 447.436, 833.790 449.840, 832.224 451.158 C 822.444 459.387, 821.085 480.073, 829.736 489.035 C 831.256 490.610, 833.288 492.821, 834.250 493.949 C 836.464 496.544, 846.978 496.936, 849 494.500 C 849.685 493.675, 851.344 493, 852.688 493 C 856.375 493, 859 491.197, 859 488.665 C 859 486.458, 860.654 484, 862.138 484 C 862.544 484, 864.330 486.025, 866.107 488.500 C 867.885 490.975, 870.102 493, 871.035 493 C 871.967 493, 873.874 493.900, 875.273 495 C 878.107 497.229, 882.963 497.637, 884.800 495.800 C 887.118 493.482, 886.125 490.416, 882.250 487.918 C 878.150 485.274, 872.005 474.558, 871.993 470.029 C 871.990 468.638, 871.093 466.150, 870 464.500 C 868.907 462.850, 868.010 460.289, 868.007 458.809 C 868.003 457.329, 867.536 455.831, 866.968 455.480 C 866.401 455.130, 865.012 452.877, 863.883 450.475 C 860.034 442.286, 852.883 438.719, 847 442.052 M 916.625 441.861 C 915.699 442.885, 913.149 444.531, 910.958 445.519 L 906.975 447.315 902.898 444.038 C 899.500 441.307, 898.449 440.930, 896.596 441.774 C 895.143 442.436, 893.770 442.451, 892.634 441.815 C 889.622 440.130, 887.998 442.611, 888.015 448.872 C 888.033 455.346, 888.342 455.977, 892.750 458.541 C 894.557 459.592, 896.074 461.334, 896.167 462.466 C 896.621 468.016, 896.818 473.457, 896.928 483.500 C 897.058 495.359, 898.106 499.581, 901.157 500.550 C 903.714 501.361, 907.810 498.606, 908.574 495.560 C 908.908 494.231, 909.748 492.927, 910.441 492.661 C 911.938 492.086, 911.810 477.669, 910.230 469.032 C 909.043 462.545, 909.422 461.183, 912.637 460.376 C 913.966 460.043, 915.507 458.922, 916.062 457.885 C 917.453 455.285, 920.649 455.527, 924.182 458.500 C 928.462 462.101, 931.216 461.738, 934.392 457.155 C 937.623 452.493, 937.258 451.184, 930.935 444.750 C 925.623 439.345, 919.941 438.198, 916.625 441.861 M 1011 440.709 C 1010.175 441.013, 1008.745 441.918, 1007.822 442.721 C 1006.839 443.575, 1005.305 443.914, 1004.123 443.539 C 1002.793 443.117, 1001.486 443.555, 1000.301 444.818 C 999.311 445.875, 996.138 449.243, 993.250 452.302 C 990.296 455.432, 988 458.798, 988 459.998 C 988 461.172, 987.468 463.114, 986.817 464.316 C 985.108 467.472, 984.995 475.059, 986.611 478.200 C 987.375 479.686, 988 482.023, 988 483.395 C 988 485.074, 989.679 487.542, 993.136 490.945 C 997.972 495.705, 998.573 496, 1003.445 496 C 1006.445 496, 1009.433 495.383, 1010.559 494.532 C 1011.626 493.724, 1013.542 493.049, 1014.816 493.032 C 1018.770 492.978, 1021 491.171, 1021 488.024 C 1021 482.836, 1025.548 483.301, 1028.391 488.780 C 1029.819 491.533, 1039.147 497, 1042.416 497 C 1048.289 497, 1050.638 489.478, 1045.110 488.372 C 1042.107 487.771, 1037.556 482.063, 1036.396 477.443 C 1036.070 476.144, 1035.173 474.558, 1034.402 473.919 C 1033.631 473.279, 1033 471.335, 1033 469.600 C 1033 467.865, 1032.389 465.557, 1031.642 464.473 C 1030.895 463.388, 1029.983 460.858, 1029.616 458.851 C 1029.248 456.845, 1028.121 454.145, 1027.111 452.851 C 1026.101 451.558, 1024.980 449.558, 1024.620 448.407 C 1024.260 447.256, 1021.772 444.893, 1019.093 443.157 C 1014.094 439.918, 1013.577 439.762, 1011 440.709 M 1683.250 441.182 C 1682.013 441.800, 1681 442.678, 1681 443.132 C 1681 444.635, 1672.947 448.118, 1670.943 447.482 C 1669.874 447.143, 1669 446.461, 1669 445.968 C 1669 443.184, 1655.431 440.893, 1653.765 443.396 C 1653.361 444.003, 1653.024 446.851, 1653.015 449.724 C 1653.001 454.521, 1653.245 455.075, 1655.991 456.495 C 1661.777 459.487, 1663.101 465.214, 1663.389 488.500 C 1663.512 498.509, 1664.044 500, 1667.488 500 C 1669.198 500, 1670.753 498.677, 1673.070 495.250 L 1676.282 490.500 1675.682 475.770 L 1675.081 461.040 1678.291 458.598 C 1683.401 454.709, 1686.664 454.303, 1688.993 457.264 C 1692.113 461.230, 1694.782 461.362, 1698.115 457.713 C 1702.049 453.405, 1701.772 451.652, 1696.250 445.925 C 1691.180 440.666, 1687.194 439.212, 1683.250 441.182 M 1186.736 443.173 C 1183.237 445.067, 1182.799 445.099, 1180.538 443.617 C 1177.993 441.950, 1175.677 442.295, 1172.790 444.771 C 1171.717 445.691, 1170.140 446.001, 1168.555 445.603 C 1166.367 445.054, 1165.794 445.469, 1164.265 448.708 C 1163.294 450.764, 1161.427 452.980, 1160.115 453.632 C 1158.803 454.285, 1157.348 455.422, 1156.880 456.160 C 1155.436 458.438, 1155.872 474.223, 1157.455 477 C 1158.239 478.375, 1159.563 480.973, 1160.398 482.773 C 1161.234 484.573, 1163.287 486.823, 1164.961 487.773 C 1166.635 488.723, 1168.259 490.288, 1168.570 491.250 C 1168.884 492.222, 1170.122 493, 1171.356 493 C 1172.578 493, 1175.308 493.883, 1177.424 494.961 C 1180.733 496.648, 1183.365 496.925, 1196.242 496.940 C 1214.074 496.960, 1215.464 496.494, 1214.694 490.757 C 1213.986 485.477, 1213.797 485.398, 1201.236 485.166 C 1192.135 484.998, 1190.068 484.651, 1187.661 482.888 C 1186.100 481.745, 1182.820 480.514, 1180.373 480.154 C 1174.986 479.362, 1174.167 477.609, 1179 477.214 C 1183.208 476.870, 1188 475.094, 1188 473.879 C 1188 473.395, 1188.605 473, 1189.345 473 C 1190.085 473, 1191.505 472.100, 1192.500 471 C 1193.495 469.900, 1195.170 469, 1196.221 469 C 1200.817 469, 1204.918 465.101, 1204.968 460.684 C 1204.986 459.136, 1205.433 457.060, 1205.961 456.072 C 1206.706 454.681, 1206.344 453.737, 1204.355 451.888 C 1202.943 450.575, 1201.397 448.488, 1200.919 447.250 C 1199.978 444.814, 1194.427 440.968, 1192 441.071 C 1191.175 441.105, 1188.806 442.051, 1186.736 443.173 M 1351.016 443.057 C 1349.099 444.126, 1347.017 445, 1346.388 445 C 1345.759 445, 1344.646 445.722, 1343.914 446.604 C 1343.181 447.486, 1341.543 448.603, 1340.273 449.086 C 1339.003 449.569, 1337.491 451.209, 1336.912 452.730 C 1336.334 454.252, 1335.151 456.281, 1334.283 457.240 C 1333.200 458.436, 1332.587 461.549, 1332.326 467.171 C 1332.117 471.675, 1331.443 475.966, 1330.829 476.706 C 1328.084 480.014, 1335.570 488, 1341.415 488 C 1342.892 488, 1344.364 488.812, 1344.982 489.966 C 1346.130 492.111, 1353.112 494.582, 1356.836 494.161 C 1358.120 494.016, 1359.823 494.438, 1360.620 495.099 C 1361.685 495.984, 1362.654 496.016, 1364.284 495.224 C 1365.503 494.631, 1370.081 493.652, 1374.458 493.048 C 1383.475 491.804, 1383.833 491.519, 1391.492 479.515 C 1397.823 469.591, 1398.831 458.159, 1393.465 457.141 C 1392.384 456.936, 1390.119 455.352, 1388.431 453.620 C 1383.606 448.671, 1375.464 444.886, 1370.078 445.090 C 1367.404 445.191, 1363.212 444.377, 1360 443.132 C 1356.975 441.960, 1354.500 441.027, 1354.500 441.058 C 1354.500 441.089, 1352.932 441.989, 1351.016 443.057 M 1729 442.500 C 1728.315 443.325, 1726.258 444, 1724.427 444 C 1722.552 444, 1720.743 444.636, 1720.284 445.458 C 1719.835 446.260, 1717.178 449.297, 1714.379 452.208 C 1711.068 455.652, 1709.054 458.722, 1708.613 461 C 1706.277 473.057, 1706.138 475.396, 1707.562 478.802 C 1708.353 480.695, 1709 483.298, 1709 484.587 C 1709 485.939, 1709.883 487.402, 1711.087 488.047 C 1712.235 488.661, 1714.373 490.501, 1715.837 492.136 C 1719.067 495.742, 1727.022 496.526, 1731.383 493.669 C 1732.784 492.751, 1735.295 492, 1736.965 492 C 1739.757 492, 1740 491.725, 1740 488.559 C 1740 486.666, 1740.476 484.824, 1741.057 484.465 C 1743.098 483.203, 1746.979 485.059, 1748.517 488.032 C 1750.702 492.258, 1761.658 497.461, 1765.386 496.043 C 1769.253 494.573, 1769.025 490.253, 1765.006 488.852 C 1761.790 487.731, 1756 480.158, 1756 477.072 C 1756 476.067, 1755.337 474.695, 1754.526 474.022 C 1753.716 473.349, 1752.759 471.157, 1752.400 469.150 C 1752.041 467.142, 1751.099 464.757, 1750.307 463.848 C 1749.515 462.939, 1748.990 461.589, 1749.141 460.848 C 1749.940 456.911, 1745.375 448.682, 1739.691 443.814 C 1736.114 440.750, 1730.976 440.119, 1729 442.500 M 1831.782 443.646 C 1830.877 444.552, 1828.418 445.572, 1826.319 445.913 C 1823.214 446.418, 1822.197 447.182, 1820.860 450.014 C 1819.956 451.928, 1817.930 454.206, 1816.358 455.076 C 1813.604 456.599, 1813.490 456.966, 1813.213 465.167 C 1812.850 475.945, 1814.351 479.675, 1822.468 488.172 C 1825.250 491.083, 1827.959 493.002, 1829.291 493.006 C 1830.506 493.010, 1832.850 493.737, 1834.500 494.622 C 1836.732 495.819, 1840.958 496.309, 1851 496.534 C 1871.263 496.989, 1872.480 496.588, 1871.117 489.911 L 1870.421 486.500 1857.811 485.500 C 1848.692 484.777, 1844.690 484.050, 1843.351 482.872 C 1842.333 481.977, 1839.362 480.937, 1836.750 480.561 C 1829.099 479.460, 1831.785 476, 1840.291 476 C 1841.414 476, 1843.045 475.346, 1843.916 474.546 C 1844.787 473.747, 1846.487 472.197, 1847.694 471.102 C 1848.901 470.007, 1851.524 468.805, 1853.523 468.430 C 1858.683 467.462, 1861.500 464.253, 1861.067 459.839 C 1860.978 458.925, 1861.376 457.886, 1861.952 457.530 C 1863.762 456.411, 1863.093 453.164, 1860.909 452.471 C 1859.759 452.106, 1858.205 450.341, 1857.456 448.550 C 1855.010 442.695, 1851.941 441.523, 1844.399 443.565 C 1838.439 445.178, 1837.861 445.184, 1836.166 443.650 C 1833.918 441.616, 1833.813 441.616, 1831.782 443.646 M 1588.280 445.072 C 1585.882 445.981, 1585.718 446.488, 1583.921 458.500 C 1583.015 464.554, 1583.001 467.789, 1583.862 471.799 C 1584.488 474.714, 1585 478.651, 1585 480.549 C 1585 482.447, 1585.444 484, 1585.987 484 C 1586.531 484, 1588.040 485.688, 1589.342 487.750 C 1594.556 496.009, 1605.032 498.232, 1611.729 492.500 C 1613.978 490.575, 1616.298 489, 1616.885 489 C 1617.895 489, 1622.619 493.729, 1625.378 497.502 C 1626.480 499.009, 1626.932 499.060, 1628.812 497.885 C 1630.684 496.716, 1631.452 496.788, 1634.478 498.418 L 1637.978 500.303 1641.439 496.402 C 1643.343 494.256, 1645.823 491.553, 1646.950 490.395 C 1649.218 488.065, 1649.652 484.521, 1647.809 483.382 C 1647.154 482.977, 1644.704 482.745, 1642.365 482.866 C 1635.548 483.219, 1631.566 479.265, 1635.474 476.022 C 1636.284 475.349, 1637.209 473.157, 1637.528 471.150 C 1637.848 469.142, 1638.535 466.719, 1639.055 465.764 C 1640.404 463.285, 1640.226 461.432, 1638.500 460 C 1637.675 459.315, 1637 457.850, 1637 456.744 C 1637 451.439, 1634.741 447, 1632.042 447 C 1630.589 447, 1628.860 446.460, 1628.200 445.800 C 1626.138 443.738, 1624.946 446.240, 1624.008 454.603 C 1622.124 471.404, 1618.865 478.174, 1611.500 480.582 C 1610.400 480.942, 1608.752 481.892, 1607.838 482.693 C 1606.925 483.494, 1604.917 484.004, 1603.378 483.825 C 1599.881 483.419, 1598.220 477.633, 1599.983 472 C 1600.958 468.885, 1601.382 462.999, 1601.019 457.638 C 1600.949 456.614, 1601.592 455.004, 1602.446 454.059 C 1605.810 450.342, 1603.660 446.826, 1599.976 450.021 C 1597.315 452.328, 1597.439 452.305, 1594.934 450.965 C 1593.870 450.395, 1593 449.101, 1593 448.087 C 1593 445.424, 1590.896 444.080, 1588.280 445.072 M 723.739 448.172 C 722.232 449.269, 721 450.943, 721 451.892 C 721 452.841, 720.339 454.491, 719.532 455.559 C 718.724 456.626, 718.049 458.085, 718.032 458.801 C 717.989 460.552, 724.092 463, 728.499 463 C 733.420 463, 734.014 460.770, 730.682 454.803 C 729.207 452.161, 728 449.351, 728 448.558 C 728 446.186, 726.635 446.062, 723.739 448.172 M 1843.500 450 C 1841.850 451.093, 1839.443 451.990, 1838.151 451.993 C 1834.818 452.003, 1826 461.171, 1826 464.627 C 1826 466.635, 1826.297 466.998, 1827.275 466.187 C 1827.976 465.605, 1831.014 464.805, 1834.025 464.409 C 1837.601 463.939, 1839.953 463.050, 1840.807 461.845 C 1841.525 460.830, 1842.781 460, 1843.597 460 C 1845.078 460, 1850.912 456.314, 1852.157 454.591 C 1853.521 452.704, 1850.229 447.990, 1847.559 448.007 C 1846.976 448.010, 1845.150 448.907, 1843.500 450 M 1187.104 450.375 C 1186.476 451.132, 1184.270 452.021, 1182.202 452.352 C 1177.674 453.076, 1170 460.110, 1170 463.536 L 1170 465.761 1176.250 464.084 C 1179.688 463.161, 1183.935 461.527, 1185.689 460.453 C 1187.443 459.379, 1190.255 457.733, 1191.939 456.797 C 1195.112 455.031, 1195.886 452.286, 1193.800 450.200 C 1192.184 448.584, 1188.510 448.680, 1187.104 450.375 M 1727.695 454.250 C 1723.671 457.711, 1720 463.143, 1720 465.637 C 1720 466.874, 1719.067 469.468, 1717.926 471.401 C 1712.236 481.045, 1726.991 485.657, 1733.254 476.192 C 1736.045 471.974, 1739 462.706, 1739 458.168 C 1739 452.135, 1732.694 449.950, 1727.695 454.250 M 843.946 456.819 C 841.776 458.989, 840 461.681, 840 462.800 C 840 463.920, 838.851 467.124, 837.446 469.920 C 833.940 476.902, 835.402 480.541, 841.668 480.422 C 849.738 480.269, 856.449 469.981, 855.802 458.752 L 855.500 453.500 851.696 453.186 C 848.400 452.915, 847.364 453.400, 843.946 456.819 M 1005.118 457.118 C 1002.433 459.802, 1001 462.129, 1001 463.802 C 1001 465.214, 1000.067 468.296, 998.926 470.652 C 995.081 478.595, 998.482 482.670, 1006.860 480.160 C 1011.786 478.684, 1015.258 473.261, 1017.024 464.286 C 1018.779 455.365, 1017.956 453, 1013.099 453 C 1009.906 453, 1008.520 453.715, 1005.118 457.118 M 1351.267 457.548 C 1337.721 469.398, 1344.226 484, 1363.050 484 C 1369.362 484, 1373.154 481.818, 1375.963 476.570 C 1376.735 475.127, 1378.461 473.672, 1379.797 473.336 C 1382.048 472.771, 1382.193 472.361, 1381.755 467.804 C 1381.134 461.336, 1376.906 457.492, 1369.362 456.536 C 1366.536 456.177, 1363.386 455.249, 1362.362 454.474 C 1359.230 452.101, 1356.688 452.806, 1351.267 457.548 M 797.517 459.069 C 795.326 460.726, 793.113 462.851, 792.600 463.791 C 792.086 464.731, 790.169 467.343, 788.339 469.596 C 784.280 474.592, 782.953 479.661, 785.453 480.620 C 788.116 481.642, 794.839 479.179, 796.112 476.715 C 796.742 475.497, 798.341 473.600, 799.666 472.500 C 802.755 469.935, 805.694 459.541, 803.931 457.416 C 802.360 455.524, 802.121 455.586, 797.517 459.069" fill="url(#tjm-green)" fill-rule="evenodd"/>
</svg>